<svg xmlns="http://www.w3.org/2000/svg" xmlns:xlink="http://www.w3.org/1999/xlink" viewBox="0 0 1095.87 186.84"><defs><style>.cls-1,.cls-3{fill:#fff;}.cls-2{clip-path:url(#clip-path);}.cls-3{opacity:0.3;}.cls-4{clip-path:url(#clip-path-2);}.cls-5{clip-path:url(#clip-path-3);}.cls-6{clip-path:url(#clip-path-4);}.cls-7{clip-path:url(#clip-path-5);}</style><clipPath id="clip-path"><rect class="cls-1" y="93.52" width="37.41" height="37.41" rx="18.7"/></clipPath><clipPath id="clip-path-2"><rect class="cls-1" x="56.11" y="56.11" width="37.41" height="74.81" rx="18.7"/></clipPath><clipPath id="clip-path-3"><rect class="cls-1" x="168.14" y="18.7" width="37.41" height="112.22" rx="18.7" transform="translate(373.69 149.62) rotate(180)"/></clipPath><clipPath id="clip-path-4"><rect class="cls-1" x="224.44" width="37.41" height="130.92" rx="18.7" transform="translate(486.28 130.92) rotate(180)"/></clipPath><clipPath id="clip-path-5"><rect class="cls-1" x="888.3" y="86.11" width="26.26" height="26.26" rx="13.13"/></clipPath></defs><title>logo-light</title><g id="Layer_2" data-name="Layer 2"><g id="Logo"><g id="Market.us"><g id="Icon"><g id="Chart"><rect class="cls-1" y="93.52" width="37.41" height="37.41" rx="18.7"/><g class="cls-2"><rect id="Shadow" class="cls-3" x="18.7" y="93.52" width="37.41" height="37.41" rx="18.7"/></g><rect class="cls-1" x="56.11" y="56.11" width="37.41" height="74.81" rx="18.7"/><g class="cls-4"><rect id="Shadow-2" data-name="Shadow" class="cls-3" x="74.81" y="56.11" width="37.41" height="74.81" rx="18.7"/></g><rect class="cls-1" x="168.14" y="18.7" width="37.41" height="112.22" rx="18.7" transform="translate(373.69 149.62) rotate(180)"/><g class="cls-5"><rect id="Shadow-3" data-name="Shadow" class="cls-3" x="149.44" y="18.7" width="37.41" height="112.22" rx="18.7" transform="translate(336.28 149.62) rotate(180)"/></g><rect class="cls-1" x="224.44" width="37.41" height="130.92" rx="18.7" transform="translate(486.28 130.92) rotate(180)"/><g class="cls-6"><rect id="Shadow-4" data-name="Shadow" class="cls-3" x="205.73" width="37.41" height="130.92" rx="18.7" transform="translate(448.87 130.92) rotate(180)"/></g></g><path id="MU" class="cls-1" d="M208.74,145.85c-.38,0-.76,0-1.15,0a18.64,18.64,0,0,0-6.1,1c-.51.22-1,.42-1.56.62a37.39,37.39,0,0,1-13.31,2.35c-19.93-.11-36.06-15.95-37.29-35.59a19,19,0,0,0,.11-2V75.27c0-41-33.57-75.25-74.59-75.27-32.53,0-64.47,23-71,50.25A18.54,18.54,0,0,0,3,55.86a18.78,18.78,0,0,0,36,7.53h0a.19.19,0,0,0,0-.07,14.54,14.54,0,0,0,.55-1.43C46.8,43.52,58.53,36.94,75,37a37.84,37.84,0,0,1,37.3,35.6,18.71,18.71,0,0,0-.11,2v36.94c0,41,33.56,75.25,74.59,75.27a84.23,84.23,0,0,0,26-4.46,38.33,38.33,0,0,0,4.8-2.16,19.24,19.24,0,0,0,3.09-2.45l.16-.15a18.77,18.77,0,0,0,4.37-7,18.66,18.66,0,0,0-16.45-24.79Z"/></g><g id="Typography"><g id="Market.us-2" data-name="Market.us"><path id="M" class="cls-1" d="M459.05,37.67q8.76,9.42,8.76,26.19v48.07H442.58V66.83q0-7.87-4.22-12.25t-11.5-4.37q-7.58,0-11.95,4.67T410.54,68v43.92H385.16V66.83q0-7.87-4.15-12.25t-11.43-4.37q-7.56,0-12,4.6c-3,3.06-4.45,7.47-4.45,13.2v43.92H327.74V29.14h25.37V43.23a24.78,24.78,0,0,1,10-11,30.39,30.39,0,0,1,15.8-4,32,32,0,0,1,16.77,4.37,27.59,27.59,0,0,1,11,12.54,33.17,33.17,0,0,1,11.79-12.31A31,31,0,0,1,435,28.25Q450.29,28.25,459.05,37.67Z"/><path id="A" class="cls-1" d="M532.5,32.4a25.93,25.93,0,0,1,10.09,11.72v-15h25.22v82.79H542.59V97a25.93,25.93,0,0,1-10.09,11.72,30,30,0,0,1-16.32,4.3,33.5,33.5,0,0,1-18.32-5.12,35,35,0,0,1-12.77-14.76q-4.66-9.65-4.67-22.56t4.67-22.62a35.08,35.08,0,0,1,12.77-14.69,33.5,33.5,0,0,1,18.32-5.12A30,30,0,0,1,532.5,32.4ZM511.21,55.7q-5,5.34-5,14.83t5,14.84q5,5.34,13.13,5.34a17.11,17.11,0,0,0,13.13-5.49q5.12-5.48,5.12-14.69t-5.12-14.76a17.26,17.26,0,0,0-13.13-5.41Q516.18,50.36,511.21,55.7Z"/><path id="R" class="cls-1" d="M622.93,32.7a31.24,31.24,0,0,1,16.25-4.45V55.4h-7.27q-10.1,0-15.65,4.3t-5.57,14.54v37.69H585.32V29.14h25.37V44.72A36.07,36.07,0,0,1,622.93,32.7Z"/><path id="K" class="cls-1" d="M700,111.93,675.24,76.77v35.16H649.86V2.13h25.38V62.37L700,29.14h29.82L696.45,70.53l34.13,41.4Z"/><path id="E" class="cls-1" d="M817.68,75.13H760.26q.43,9.36,4.74,13.43a15.32,15.32,0,0,0,11,4.08,15,15,0,0,0,9.35-2.82,13.19,13.19,0,0,0,4.9-7.27h26.85A35.11,35.11,0,0,1,810,98.21,37.93,37.93,0,0,1,796,109a47.63,47.63,0,0,1-40.43-1.19,36.54,36.54,0,0,1-14.76-14.76q-5.34-9.65-5.34-22.56t5.26-22.62a36.1,36.1,0,0,1,14.77-14.69,48.72,48.72,0,0,1,43.32-.08A35.65,35.65,0,0,1,813.3,47.31a42.25,42.25,0,0,1,5.12,21A35.25,35.25,0,0,1,817.68,75.13ZM788.37,52.21a16.11,16.11,0,0,0-11.2-4.08,16.64,16.64,0,0,0-11.57,4.15q-4.61,4.15-5.2,12.17h32.35Q792.9,56.29,788.37,52.21Z"/><path id="T" class="cls-1" d="M878.51,90.12v21.81H867.08q-14.54,0-22.62-7.19t-8.09-23.82V50.5H825.24V29.14h11.13V8.81h25.37V29.14h16.62V50.5H861.74V81.37c0,3.26.67,5.54,2,6.82s3.58,1.93,6.75,1.93Z"/><g id="Dot"><rect class="cls-1" x="888.3" y="86.11" width="26.26" height="26.26" rx="13.13"/><g class="cls-7"><rect class="cls-3" x="901.43" y="86.11" width="26.26" height="26.26" rx="13.13"/></g></g><path id="U" class="cls-1" d="M1010.12,29.14v82.79H984.59V97A27.56,27.56,0,0,1,974,108.52a30.84,30.84,0,0,1-16.4,4.3q-14.25,0-22.63-9.49t-8.38-26.12V29.14H951.8v45q0,8.45,4.38,13.13T968,91.9q7.71,0,12.16-4.89t4.45-14V29.14Z"/><path id="S" class="cls-1" d="M1082.89,36a34.19,34.19,0,0,1,11.8,20.78H1071a13.15,13.15,0,0,0-4.68-7.94,14.17,14.17,0,0,0-9.12-2.9q-4.31,0-6.53,1.86A6.48,6.48,0,0,0,1048.4,53c0,2.57,1.35,4.5,4.08,5.78a64.21,64.21,0,0,0,12.83,3.86,125.79,125.79,0,0,1,15.58,4.53,25.66,25.66,0,0,1,10.53,7.49q4.45,5.19,4.45,14a21.39,21.39,0,0,1-3.85,12.61,25.46,25.46,0,0,1-11.13,8.61,43.64,43.64,0,0,1-17.21,3.11q-16.77,0-26.86-7.42t-12.31-21.22H1049a11,11,0,0,0,4.52,8.16c2.62,1.89,6,2.82,10.17,2.82,2.87,0,5-.66,6.53-2a6.75,6.75,0,0,0,2.22-5.27,6.32,6.32,0,0,0-4.08-6.15A75.1,75.1,0,0,0,1055.07,78a105.74,105.74,0,0,1-15.13-4.15,24.9,24.9,0,0,1-10.24-7.2q-4.31-5-4.3-13.57a22.18,22.18,0,0,1,8.45-18q8.46-6.9,23.89-6.9Q1073.47,28.1,1082.89,36Z"/></g><g id="One_Stop_Shop_For_The_Reports" data-name="One Stop Shop For The Reports"><path id="O" class="cls-1" d="M334,155.52a10.79,10.79,0,0,1-4.26-4,11.59,11.59,0,0,1,0-11.51,10.79,10.79,0,0,1,4.26-4,13.43,13.43,0,0,1,12.18,0,11.08,11.08,0,0,1,0,19.55,13.43,13.43,0,0,1-12.18,0Zm9.57-3.7a6.37,6.37,0,0,0,2.44-2.47,7.8,7.8,0,0,0,0-7.2,6.3,6.3,0,0,0-2.44-2.47,7.23,7.23,0,0,0-7,0,6.3,6.3,0,0,0-2.44,2.47,7.8,7.8,0,0,0,0,7.2,6.37,6.37,0,0,0,2.44,2.47,7.3,7.3,0,0,0,7,0Z"/><path id="N" class="cls-1" d="M382.25,134.88v21.73h-4.13l-10.83-13.19v13.19h-5V134.88h4.16l10.81,13.19V134.88Z"/><path id="E-2" data-name="E" class="cls-1" d="M410.81,152.58v4H394V134.88h16.42v4H399v4.72h10.08v3.91H399v5Z"/><path id="S-2" data-name="S" class="cls-1" d="M438.92,156.28a11.65,11.65,0,0,1-3.86-1.81l1.7-3.79a11.91,11.91,0,0,0,3.33,1.65,12.53,12.53,0,0,0,3.84.62,6.09,6.09,0,0,0,3.17-.64,1.93,1.93,0,0,0,1-1.69,1.63,1.63,0,0,0-.61-1.29,4.63,4.63,0,0,0-1.55-.82c-.63-.21-1.49-.44-2.56-.68a37.64,37.64,0,0,1-4.07-1.18,6.76,6.76,0,0,1-2.72-1.9,5.14,5.14,0,0,1-1.13-3.47,6,6,0,0,1,1-3.43,6.85,6.85,0,0,1,3.08-2.44,12.64,12.64,0,0,1,5-.9,16.79,16.79,0,0,1,4.07.49,12.26,12.26,0,0,1,3.47,1.43l-1.55,3.82a12.12,12.12,0,0,0-6-1.71,5.59,5.59,0,0,0-3.12.69,2.08,2.08,0,0,0-1,1.8,1.77,1.77,0,0,0,1.16,1.66,18.34,18.34,0,0,0,3.56,1.07,35.24,35.24,0,0,1,4.06,1.18A6.63,6.63,0,0,1,452,146.8a5,5,0,0,1,1.13,3.45,5.9,5.9,0,0,1-1,3.4,7,7,0,0,1-3.12,2.43,12.69,12.69,0,0,1-5.06.9A17.68,17.68,0,0,1,438.92,156.28Z"/><path id="T-2" data-name="T" class="cls-1" d="M467.34,139h-6.95v-4.1h18.93V139h-6.95v17.63h-5Z"/><path id="O-2" data-name="O" class="cls-1" d="M492.72,155.52a10.76,10.76,0,0,1-4.25-4,11.52,11.52,0,0,1,0-11.51,10.76,10.76,0,0,1,4.25-4,13.43,13.43,0,0,1,12.18,0,11.07,11.07,0,0,1,0,19.55,13.43,13.43,0,0,1-12.18,0Zm9.58-3.7a6.41,6.41,0,0,0,2.43-2.47,7.73,7.73,0,0,0,0-7.2,6.34,6.34,0,0,0-2.43-2.47,7.25,7.25,0,0,0-7,0,6.34,6.34,0,0,0-2.43,2.47,7.73,7.73,0,0,0,0,7.2,6.41,6.41,0,0,0,2.43,2.47,7.32,7.32,0,0,0,7,0Z"/><path id="P" class="cls-1" d="M535.5,135.84a7.79,7.79,0,0,1,3.27,11.1,7.3,7.3,0,0,1-3.27,2.73,12.28,12.28,0,0,1-5,1h-4.37v6h-5V134.88h9.4A12.12,12.12,0,0,1,535.5,135.84Zm-1.85,9.7a3.38,3.38,0,0,0,1.18-2.77,3.42,3.42,0,0,0-1.18-2.81,5.26,5.26,0,0,0-3.45-1h-4.09v7.54h4.09A5.26,5.26,0,0,0,533.65,145.54Z"/><path id="S-3" data-name="S" class="cls-1" d="M567.91,156.28a11.62,11.62,0,0,1-3.87-1.81l1.71-3.79a11.84,11.84,0,0,0,3.32,1.65,12.6,12.6,0,0,0,3.85.62,6.11,6.11,0,0,0,3.17-.64,1.92,1.92,0,0,0,1-1.69,1.6,1.6,0,0,0-.61-1.29,4.63,4.63,0,0,0-1.55-.82c-.63-.21-1.48-.44-2.56-.68a37.64,37.64,0,0,1-4.07-1.18,6.66,6.66,0,0,1-2.71-1.9,5.09,5.09,0,0,1-1.14-3.47,6,6,0,0,1,1-3.43,6.83,6.83,0,0,1,3.09-2.44,12.59,12.59,0,0,1,5-.9,16.79,16.79,0,0,1,4.07.49,12.45,12.45,0,0,1,3.48,1.43l-1.56,3.82a12.07,12.07,0,0,0-6-1.71,5.59,5.59,0,0,0-3.12.69,2.08,2.08,0,0,0-1,1.8,1.76,1.76,0,0,0,1.17,1.66,18.19,18.19,0,0,0,3.55,1.07,35.49,35.49,0,0,1,4.07,1.18A6.66,6.66,0,0,1,581,146.8a5,5,0,0,1,1.14,3.45,6,6,0,0,1-1,3.4,7.08,7.08,0,0,1-3.12,2.43,12.76,12.76,0,0,1-5.06.9A17.57,17.57,0,0,1,567.91,156.28Z"/><path id="H" class="cls-1" d="M612.06,134.88v21.73h-5V147.7h-9.87v8.91h-5V134.88h5v8.57H607v-8.57Z"/><path id="O-3" data-name="O" class="cls-1" d="M628.22,155.52a10.76,10.76,0,0,1-4.25-4A11.52,11.52,0,0,1,624,140a10.76,10.76,0,0,1,4.25-4,13.45,13.45,0,0,1,12.19,0,11.08,11.08,0,0,1,0,19.55,13.45,13.45,0,0,1-12.19,0Zm9.58-3.7a6.41,6.41,0,0,0,2.43-2.47,7.73,7.73,0,0,0,0-7.2,6.34,6.34,0,0,0-2.43-2.47,7.25,7.25,0,0,0-7,0,6.34,6.34,0,0,0-2.43,2.47,7.73,7.73,0,0,0,0,7.2,6.41,6.41,0,0,0,2.43,2.47,7.32,7.32,0,0,0,7,0Z"/><path id="P-2" data-name="P" class="cls-1" d="M671,135.84a7.79,7.79,0,0,1,3.27,11.1,7.25,7.25,0,0,1-3.27,2.73,12.28,12.28,0,0,1-5,1h-4.37v6h-5V134.88H666A12.12,12.12,0,0,1,671,135.84Zm-1.85,9.7a3.38,3.38,0,0,0,1.18-2.77,3.42,3.42,0,0,0-1.18-2.81,5.23,5.23,0,0,0-3.44-1h-4.1v7.54h4.1A5.23,5.23,0,0,0,669.15,145.54Z"/><path id="F" class="cls-1" d="M706.28,138.92v5.74h10.06v4H706.28v7.92h-5V134.88h16.42v4Z"/><path id="O-4" data-name="O" class="cls-1" d="M731.87,155.52a10.83,10.83,0,0,1-4.25-4,11.59,11.59,0,0,1,0-11.51,10.83,10.83,0,0,1,4.25-4,13.45,13.45,0,0,1,12.19,0,11.08,11.08,0,0,1,0,19.55,13.45,13.45,0,0,1-12.19,0Zm9.58-3.7a6.37,6.37,0,0,0,2.44-2.47,7.8,7.8,0,0,0,0-7.2,6.3,6.3,0,0,0-2.44-2.47,7.23,7.23,0,0,0-7,0,6.3,6.3,0,0,0-2.44,2.47,7.8,7.8,0,0,0,0,7.2,6.37,6.37,0,0,0,2.44,2.47,7.3,7.3,0,0,0,7,0Z"/><path id="R-2" data-name="R" class="cls-1" d="M774.08,156.61l-4.19-6.05h-4.63v6.05h-5V134.88h9.41a12.1,12.1,0,0,1,5,1,7.18,7.18,0,0,1,4.43,6.93,7.1,7.1,0,0,1-4.48,6.86l4.88,7ZM772.81,140a5.26,5.26,0,0,0-3.45-1h-4.1v7.57h4.1a5.26,5.26,0,0,0,3.45-1,3.94,3.94,0,0,0,0-5.6Z"/><path id="T-3" data-name="T" class="cls-1" d="M809.5,139h-7v-4.1h18.94V139h-7v17.63h-5Z"/><path id="H-2" data-name="H" class="cls-1" d="M850.69,134.88v21.73h-5V147.7h-9.87v8.91h-5V134.88h5v8.57h9.87v-8.57Z"/><path id="E-3" data-name="E" class="cls-1" d="M879.25,152.58v4H862.42V134.88h16.43v4H867.42v4.72h10.09v3.91H867.42v5Z"/><path id="R-3" data-name="R" class="cls-1" d="M919.05,156.61l-4.19-6.05h-4.63v6.05h-5V134.88h9.41a12.1,12.1,0,0,1,5,1,7.16,7.16,0,0,1,4.42,6.93,7.08,7.08,0,0,1-4.47,6.86l4.88,7ZM917.77,140a5.21,5.21,0,0,0-3.44-1h-4.1v7.57h4.1a5.21,5.21,0,0,0,3.44-1,3.91,3.91,0,0,0,0-5.6Z"/><path id="E-4" data-name="E" class="cls-1" d="M951.42,152.58v4H934.6V134.88H951v4H939.6v4.72h10.09v3.91H939.6v5Z"/><path id="P-3" data-name="P" class="cls-1" d="M976.43,135.84a7.79,7.79,0,0,1,3.27,11.1,7.25,7.25,0,0,1-3.27,2.73,12.27,12.27,0,0,1-5,1H967v6h-5V134.88h9.41A12.1,12.1,0,0,1,976.43,135.84Zm-1.85,9.7a3.38,3.38,0,0,0,1.18-2.77,3.42,3.42,0,0,0-1.18-2.81,5.21,5.21,0,0,0-3.44-1H967v7.54h4.1A5.21,5.21,0,0,0,974.58,145.54Z"/><path id="O-5" data-name="O" class="cls-1" d="M995.74,155.52a10.76,10.76,0,0,1-4.25-4,11.52,11.52,0,0,1,0-11.51,10.76,10.76,0,0,1,4.25-4,13.43,13.43,0,0,1,12.18,0,11.07,11.07,0,0,1,0,19.55,13.43,13.43,0,0,1-12.18,0Zm9.58-3.7a6.41,6.41,0,0,0,2.43-2.47,7.73,7.73,0,0,0,0-7.2,6.34,6.34,0,0,0-2.43-2.47,7.25,7.25,0,0,0-7,0,6.37,6.37,0,0,0-2.44,2.47,7.8,7.8,0,0,0,0,7.2,6.43,6.43,0,0,0,2.44,2.47,7.32,7.32,0,0,0,7,0Z"/><path id="R-4" data-name="R" class="cls-1" d="M1037.94,156.61l-4.19-6.05h-4.63v6.05h-5V134.88h9.4a12.12,12.12,0,0,1,5,1,7.62,7.62,0,0,1,3.27,2.73,7.51,7.51,0,0,1,1.15,4.2,7.08,7.08,0,0,1-4.47,6.86l4.87,7ZM1036.67,140a5.26,5.26,0,0,0-3.45-1h-4.1v7.57h4.1a5.26,5.26,0,0,0,3.45-1,3.91,3.91,0,0,0,0-5.6Z"/><path id="T-4" data-name="T" class="cls-1" d="M1057.68,139h-7v-4.1h18.94V139h-7v17.63h-5Z"/><path id="S-4" data-name="S" class="cls-1" d="M1081,156.28a11.65,11.65,0,0,1-3.86-1.81l1.7-3.79a11.91,11.91,0,0,0,3.33,1.65,12.55,12.55,0,0,0,3.85.62,6.07,6.07,0,0,0,3.16-.64,1.93,1.93,0,0,0,1-1.69,1.63,1.63,0,0,0-.61-1.29,4.63,4.63,0,0,0-1.55-.82c-.63-.21-1.49-.44-2.56-.68a37.64,37.64,0,0,1-4.07-1.18,6.76,6.76,0,0,1-2.72-1.9,5.14,5.14,0,0,1-1.13-3.47,6,6,0,0,1,1-3.43,6.85,6.85,0,0,1,3.08-2.44,12.64,12.64,0,0,1,5-.9,16.79,16.79,0,0,1,4.07.49,12.26,12.26,0,0,1,3.47,1.43l-1.55,3.82a12.09,12.09,0,0,0-6-1.71,5.59,5.59,0,0,0-3.12.69,2.08,2.08,0,0,0-1,1.8,1.77,1.77,0,0,0,1.16,1.66,18.34,18.34,0,0,0,3.56,1.07,35.24,35.24,0,0,1,4.06,1.18,6.63,6.63,0,0,1,2.72,1.86,5,5,0,0,1,1.13,3.45,5.9,5.9,0,0,1-1,3.4,7,7,0,0,1-3.12,2.43,12.69,12.69,0,0,1-5.06.9A17.68,17.68,0,0,1,1081,156.28Z"/></g></g></g></g></g></svg>