<svg width="22" height="21" viewBox="0 0 22 21" fill="none" xmlns="http://www.w3.org/2000/svg"> <g clip-path="url(#clip0_816_2822)"> <path d="M5.75 0C5.02812 0 4.4375 0.590625 4.4375 1.3125V19.6875C4.4375 20.4094 5.02812 21 5.75 21H18.875C19.5969 21 20.1875 20.4094 20.1875 19.6875V5.25L14.9375 0H5.75Z" fill="#C1CDD5"></path> <path d="M16.25 5.25H20.1875L14.9375 0V3.9375C14.9375 4.65938 15.5281 5.25 16.25 5.25Z" fill="#B0B7BD"></path> <path d="M20.1875 9.1875L16.25 5.25H20.1875V9.1875Z" fill="#C1CDD4"></path> <path d="M17.5625 17.0625C17.5625 17.4234 17.2672 17.7188 16.9062 17.7188H2.46875C2.10781 17.7188 1.8125 17.4234 1.8125 17.0625V10.5C1.8125 10.1391 2.10781 9.84375 2.46875 9.84375H16.9062C17.2672 9.84375 17.5625 10.1391 17.5625 10.5V17.0625Z" fill="#F15642"></path> <path d="M4.67334 12.434C4.67334 12.2607 4.80984 12.0717 5.02968 12.0717H6.24178C6.92428 12.0717 7.53853 12.5285 7.53853 13.4039C7.53853 14.2334 6.92428 14.6954 6.24178 14.6954H5.36568V15.3884C5.36568 15.6194 5.21868 15.75 5.02968 15.75C4.85643 15.75 4.67334 15.6194 4.67334 15.3884V12.434ZM5.36568 12.7326V14.0398H6.24178C6.59353 14.0398 6.87178 13.7294 6.87178 13.4039C6.87178 13.0371 6.59353 12.7326 6.24178 12.7326H5.36568Z" fill="white"></path> <path d="M8.56635 15.75C8.3931 15.75 8.2041 15.6555 8.2041 15.4252V12.4445C8.2041 12.2561 8.3931 12.119 8.56635 12.119H9.76794C12.1659 12.119 12.1134 15.75 9.81519 15.75H8.56635ZM8.8971 12.7595V15.1102H9.76794C11.1848 15.1102 11.2478 12.7595 9.76794 12.7595H8.8971Z" fill="white"></path> <path d="M12.9638 12.8015V13.6356H14.3019C14.4909 13.6356 14.6799 13.8246 14.6799 14.0077C14.6799 14.1809 14.4909 14.3227 14.3019 14.3227H12.9638V15.4245C12.9638 15.6082 12.8332 15.7493 12.6494 15.7493C12.4184 15.7493 12.2773 15.6082 12.2773 15.4245V12.4438C12.2773 12.2555 12.4191 12.1183 12.6494 12.1183H14.4915C14.7225 12.1183 14.859 12.2555 14.859 12.4438C14.859 12.6118 14.7225 12.8008 14.4915 12.8008H12.9638V12.8015Z" fill="white"></path> <path d="M16.9062 17.7188H4.4375V18.375H16.9062C17.2672 18.375 17.5625 18.0797 17.5625 17.7188V17.0625C17.5625 17.4234 17.2672 17.7188 16.9062 17.7188Z" fill="#CAD1D8"></path> </g> <defs> <clipPath id="clip0_816_2822"> <rect width="21" height="21" fill="white" transform="translate(0.5)"></rect> </clipPath> </defs> </svg>