<svg width="21" height="21" viewBox="0 0 21 21" fill="none" xmlns="http://www.w3.org/2000/svg"> <g clip-path="url(#clip0_816_2872)"> <path d="M5.25 0C4.52812 0 3.9375 0.590625 3.9375 1.3125V19.6875C3.9375 20.4094 4.52812 21 5.25 21H18.375C19.0969 21 19.6875 20.4094 19.6875 19.6875V5.25L14.4375 0H5.25Z" fill="#C1CDD4"></path> <path d="M15.75 5.25H19.6875L14.4375 0V3.9375C14.4375 4.65938 15.0281 5.25 15.75 5.25Z" fill="#B0B7BD"></path> <path d="M19.6875 9.1875L15.75 5.25H19.6875V9.1875Z" fill="#C1CDD4"></path> <path d="M17.0625 17.0625C17.0625 17.4234 16.7672 17.7188 16.4062 17.7188H1.96875C1.60781 17.7188 1.3125 17.4234 1.3125 17.0625V10.5C1.3125 10.1391 1.60781 9.84375 1.96875 9.84375H16.4062C16.7672 9.84375 17.0625 10.1391 17.0625 10.5V17.0625Z" fill="#F15642"></path> <path d="M4.3252 12.434C4.3252 12.2607 4.4617 12.0717 4.68154 12.0717H5.89363C6.57613 12.0717 7.19038 12.5285 7.19038 13.4039C7.19038 14.2334 6.57613 14.6954 5.89363 14.6954H5.01754V15.3884C5.01754 15.6194 4.8712 15.75 4.6822 15.75C4.50895 15.75 4.32585 15.6194 4.32585 15.3884V12.434H4.3252ZM5.01754 12.7326V14.0398H5.89363C6.24538 14.0398 6.52363 13.7294 6.52363 13.4039C6.52363 13.0371 6.24538 12.7326 5.89363 12.7326H5.01754Z" fill="white"></path> <path d="M7.85889 12.434C7.85889 12.2607 7.99539 12.0717 8.21589 12.0717H9.42798C10.1105 12.0717 10.7247 12.5285 10.7247 13.4039C10.7247 14.2334 10.1105 14.6954 9.42798 14.6954H8.55189V15.3884C8.55189 15.6194 8.40489 15.75 8.21589 15.75C8.04264 15.75 7.85889 15.6194 7.85889 15.3884V12.434ZM8.55123 12.7326V14.0398H9.42732C9.77907 14.0398 10.0573 13.7294 10.0573 13.4039C10.0573 13.0371 9.77907 12.7326 9.42732 12.7326H8.55123Z" fill="white"></path> <path d="M12.3733 12.7752H11.4558C10.9991 12.7752 10.9991 12.1039 11.4558 12.1039H13.9371C14.4044 12.1039 14.4044 12.7752 13.9371 12.7752H13.0663V15.4252C13.0663 15.8813 12.3733 15.8924 12.3733 15.4252V12.7752Z" fill="white"></path> <path d="M16.4062 17.7188H3.9375V18.375H16.4062C16.7672 18.375 17.0625 18.0797 17.0625 17.7188V17.0625C17.0625 17.4234 16.7672 17.7188 16.4062 17.7188Z" fill="#CAD1D8"></path> </g> <defs> <clipPath id="clip0_816_2872"> <rect width="21" height="21" fill="white"></rect> </clipPath> </defs> </svg>