<svg width="22" height="21" viewBox="0 0 22 21" fill="none" xmlns="http://www.w3.org/2000/svg"> <g clip-path="url(#clip0_816_2847)"> <path d="M6 0C5.27812 0 4.6875 0.590625 4.6875 1.3125V19.6875C4.6875 20.4094 5.27812 21 6 21H19.125C19.8469 21 20.4375 20.4094 20.4375 19.6875V5.25L15.1875 0H6Z" fill="#C1CDD4"></path> <path d="M16.5 5.25H20.4375L15.1875 0V3.9375C15.1875 4.65938 15.7781 5.25 16.5 5.25Z" fill="#B0B7BD"></path> <path d="M20.4375 9.1875L16.5 5.25H20.4375V9.1875Z" fill="#C1CDD4"></path> <path d="M17.8125 17.0625C17.8125 17.4234 17.5172 17.7188 17.1562 17.7188H2.71875C2.35781 17.7188 2.0625 17.4234 2.0625 17.0625V10.5C2.0625 10.1391 2.35781 9.84375 2.71875 9.84375H17.1562C17.5172 9.84375 17.8125 10.1391 17.8125 10.5V17.0625Z" fill="#84BD5A"></path> <path d="M6.66907 13.379L7.58192 12.2351C7.85492 11.8781 8.38517 12.3342 8.08592 12.6755C7.77157 13.0482 7.44082 13.4525 7.12582 13.8666L8.19617 15.1994C8.48492 15.5932 7.90807 15.9705 7.62457 15.582L6.65857 14.3437L5.70898 15.6089C5.44123 15.9915 4.84798 15.5617 5.14723 15.2047L6.20182 13.8666C5.87107 13.4518 5.55082 13.0482 5.23123 12.6755C4.90114 12.2817 5.51473 11.8781 5.75623 12.2463L6.66907 13.379Z" fill="white"></path> <path d="M8.84424 12.434C8.84424 12.2607 8.99124 12.1137 9.17499 12.1137C9.34299 12.1137 9.48474 12.2614 9.48474 12.434V15.0629H10.9121C11.4259 15.0629 11.4371 15.75 10.9121 15.75H9.17564C8.99189 15.75 8.84489 15.6194 8.84489 15.4304V12.434H8.84424Z" fill="white"></path> <path d="M11.9071 12.9065C12.0279 11.888 13.5648 11.7049 14.2893 12.2614C14.6463 12.5495 14.2683 13.0062 13.9533 12.7752C13.5648 12.5291 12.6835 12.4136 12.5732 12.9583C12.4315 13.8193 14.7139 13.3265 14.6771 14.7223C14.6404 16.0552 12.7097 16.086 11.9852 15.4882C11.8113 15.3464 11.8172 15.1161 11.9117 14.9737C12.0482 14.8378 12.1998 14.7906 12.379 14.9376C12.8088 15.2309 13.9166 15.4514 13.9946 14.7059C13.9271 13.9302 11.7444 14.3968 11.9071 12.9065Z" fill="white"></path> <path d="M17.1562 17.7188H4.6875V18.375H17.1562C17.5172 18.375 17.8125 18.0797 17.8125 17.7188V17.0625C17.8125 17.4234 17.5172 17.7188 17.1562 17.7188Z" fill="#CAD1D8"></path> </g> <defs> <clipPath id="clip0_816_2847"> <rect width="21" height="21" fill="white" transform="translate(0.75)"></rect> </clipPath> </defs> </svg>